<svg xmlns="http://www.w3.org/2000/svg" viewBox="0 0 24 24"
fill="none" stroke="white" stroke-width="1.7"
stroke-linecap="round" stroke-linejoin="round">
  <path d="M0 21h24v3H0z" fill="white"/>

  <g stroke="white" stroke-width="1.5" stroke-linecap="round" stroke-linejoin="round">
    <path d="M2 8c2-1 5 1 8 1s6-2 9-1c2 0 3 1 3 4" />
    
    <path d="M2 11c2-1 5 1 8 1s6-2 9-1c2 0 3 1 3 4" transform="translate(0 3)" />
    
    <path d="M4 13c2-0.5 4 1 7 1s5-1.5 8-1c1 0 2 0.5 2 2" transform="translate(0 6)" />
  </g>

  <circle cx="4" cy="5" r="0.8" fill="white"/>
  <circle cx="18" cy="4" r="0.8" fill="white"/>
  <circle cx="21" cy="6" r="0.8" fill="white"/>
</svg>