<svg xmlns="http://www.w3.org/2000/svg" viewBox="0 0 24 24"
fill="none" stroke="white" stroke-width="1.7"
stroke-linecap="round" stroke-linejoin="round">
  <circle cx="12" cy="12" r="3" fill="white" stroke="none"/>

  <g stroke="white" stroke-width="1.5" stroke-linecap="round">
    <path d="M14 9.5c2-2 5.5-1 6.5 4.5" />
    <path d="M14 9.5c2-2 5.5-1 6.5 4.5" transform="rotate(60 12 12)" />
    <path d="M14 9.5c2-2 5.5-1 6.5 4.5" transform="rotate(120 12 12)" />
    <path d="M14 9.5c2-2 5.5-1 6.5 4.5" transform="rotate(180 12 12)" />
    <path d="M14 9.5c2-2 5.5-1 6.5 4.5" transform="rotate(240 12 12)" />
    <path d="M14 9.5c2-2 5.5-1 6.5 4.5" transform="rotate(300 12 12)" />

  </g>
</svg>